<svg version="1.1" xmlns="http://www.w3.org/2000/svg" style="display: block;" viewBox="0 0 2048 2048" width="1024" height="1024" preserveAspectRatio="none">
<path transform="translate(0,0)" fill="rgb(254,254,254)" d="M 1099.12 577.5 C 1145.3 577.419 1191.48 577.576 1237.65 577.97 C 1232.55 589.066 1220.01 608.752 1213.29 619.789 L 1170.44 690.089 C 1130.29 756.042 1091.39 822.813 1050.74 888.445 C 1040.14 905.56 992.635 977.852 990.417 990.278 C 989.065 997.848 989.838 1006.67 989.883 1014.38 L 990.146 1057.23 C 990.417 1112.97 991.244 1170.34 990.945 1225.89 C 977.844 1226.54 960.831 1226.05 947.574 1226.01 L 867.438 1225.74 C 857.348 1225.7 844.863 1225.16 835.132 1225.59 L 834.984 1062.5 C 835.015 1041.62 836.031 1011.44 833.991 990.89 C 833.574 986.688 818.143 962.262 814.577 956.392 L 782.367 903.421 C 781.329 902.301 770.01 883.214 768.635 880.923 L 729.671 815.774 L 635.55 660.424 C 620.843 636.267 598.867 603.167 586.133 579.026 L 763.487 578.794 L 857.47 746.104 C 868.888 766.878 880.527 787.531 892.386 808.057 C 899.18 819.95 906.993 834.439 914.884 845.394 C 928.427 823.129 940.768 800.54 953.706 777.937 L 1024.39 653.161 L 1051.02 605.106 C 1068.81 573.027 1062.14 577.121 1099.12 577.5 z"/>
<path transform="translate(0,0)" fill="rgb(254,254,254)" d="M 1181.05 1100.52 L 1373.77 1100.57 C 1401.9 1100.49 1435.3 1101.54 1462.95 1100.34 C 1464.04 1157.26 1462.88 1217.44 1462.9 1274.64 L 1463 1328.1 C 1463.01 1338.86 1463.58 1355.32 1461.64 1365.46 C 1416.47 1408.03 1341.44 1448.98 1280.93 1461.26 C 1176.5 1482.44 1078.89 1468.58 988.684 1412.93 C 943.473 1381.9 913.158 1347.68 888.131 1298.5 C 883.222 1288.86 876.994 1276.26 874.167 1266.03 C 924.63 1264.91 978.141 1266.09 1029 1265.85 C 1029.02 1254.7 1029.41 1244.74 1029.97 1233.63 L 1038.82 1249.01 C 1070.12 1302.83 1125.1 1331.23 1186.12 1333.38 C 1238.5 1335.23 1271.68 1324.53 1316.4 1298.55 C 1315.36 1276.37 1316.13 1247.61 1315.98 1224.7 C 1292.93 1225.64 1265.79 1224.78 1242.46 1224.96 C 1224.68 1225.09 1196.01 1225.72 1179.13 1223.93 C 1178.92 1198.01 1178.86 1172.09 1178.95 1146.17 C 1178.95 1139.26 1177.81 1104.35 1181.05 1100.52 z"/>
<path transform="translate(0,0)" fill="rgb(254,254,254)" d="M 1179.52 818.514 C 1242.24 814.49 1304.96 826.302 1361.91 852.864 C 1378.45 860.691 1440.42 898.622 1445.53 912.98 C 1445.34 919.33 1415.8 950.443 1409.31 957.812 L 1352.84 1022.82 C 1324.09 997.724 1292.35 974.206 1254.44 964.853 C 1222.77 954.449 1179.53 953.667 1147.37 962.168 C 1090.97 977.073 1059.33 1009.43 1030.66 1057.58 C 1030.16 1048.95 1028.69 1004.87 1031.21 999.044 C 1041.15 976.136 1063.08 945.039 1076.07 922.972 C 1096.01 889.089 1115.37 855.598 1135.64 822.257 C 1150.24 820.703 1164.87 819.456 1179.52 818.514 z"/>
</svg>